<svg width="237" height="25" xmlns="http://www.w3.org/2000/svg">
    <g fill="none" fill-rule="evenodd">
        <path d="M10.404 14.652zm0 0l1.44 1.422s-1.656 2.142-4.842 2.142c-3.636 0-6.39-2.79-6.39-6.516s2.754-6.516 6.39-6.516c3.024 0 4.662 1.98 4.662 1.98l-1.458 1.422S9.072 7.2 7.002 7.2c-2.484 0-4.194 2.07-4.194 4.5s1.71 4.5 4.194 4.5c2.213 0 3.401-1.547 3.402-1.548zm6.858-5.4c.774 0 1.476.27 1.476.27l-.756 1.944s-.396-.198-1.026-.198c-1.314 0-1.908 1.152-1.908 1.152V18h-2.16V9.468h2.052v1.242s.738-1.458 2.322-1.458zm5.652 0c2.34 0 4.302 1.818 4.302 4.446 0 .162 0 .486-.018.81h-6.372c.162.756 1.044 1.728 2.394 1.728 1.494 0 2.34-.864 2.34-.864l1.08 1.62s-1.35 1.224-3.42 1.224c-2.592 0-4.59-1.98-4.59-4.482 0-2.502 1.818-4.482 4.284-4.482zm-2.088 3.69h4.23c-.036-.738-.72-1.728-2.142-1.728-1.386 0-2.016.972-2.088 1.728zm13.77-3.474h1.998V18h-1.998v-1.116s-.738 1.332-2.574 1.332c-2.214 0-4.158-1.854-4.158-4.482s1.944-4.482 4.158-4.482c1.782 0 2.574 1.332 2.574 1.332V9.468zm-.162 5.544v-2.556s-.63-1.188-2.016-1.188c-1.458 0-2.358 1.062-2.358 2.466 0 1.404.9 2.466 2.358 2.466 1.386 0 2.016-1.188 2.016-1.188zm3.276-3.6V9.468h1.674V6.93h2.16v2.538h2.574v1.944h-2.574v3.438c0 1.044.54 1.35 1.116 1.35.486 0 .9-.306.9-.306l.792 1.764s-.81.558-2.052.558c-1.656 0-2.916-1.206-2.916-3.024v-3.78H37.71zm11.52-2.16c2.34 0 4.302 1.818 4.302 4.446 0 .162 0 .486-.018.81h-6.372c.162.756 1.044 1.728 2.394 1.728 1.494 0 2.34-.864 2.34-.864l1.08 1.62s-1.35 1.224-3.42 1.224c-2.592 0-4.59-1.98-4.59-4.482 0-2.502 1.818-4.482 4.284-4.482zm-2.088 3.69h4.23c-.036-.738-.72-1.728-2.142-1.728-1.386 0-2.016.972-2.088 1.728zm15.768-8.55V18h-1.998v-1.116s-.738 1.332-2.574 1.332c-2.214 0-4.158-1.854-4.158-4.482s1.944-4.482 4.158-4.482c1.62 0 2.412 1.116 2.412 1.116V4.392h2.16zm-2.16 10.62v-2.556s-.612-1.188-2.034-1.188c-1.458 0-2.34 1.062-2.34 2.466 0 1.404.882 2.466 2.34 2.466 1.422 0 2.034-1.188 2.034-1.188zM70.146 18V4.392h2.16v5.976s.792-1.116 2.412-1.116c2.214 0 4.158 1.854 4.158 4.482s-1.944 4.482-4.158 4.482c-1.836 0-2.574-1.332-2.574-1.332V18h-1.998zm2.16-5.544v2.556s.612 1.188 2.034 1.188c1.458 0 2.34-1.062 2.34-2.466 0-1.404-.882-2.466-2.34-2.466-1.422 0-2.034 1.188-2.034 1.188zm7.074 9l1.008-1.674s.576.558 1.134.558c.738 0 1.044-.216 1.458-1.26l.342-.882-4.158-8.73h2.394l2.88 6.246 2.25-6.246h2.322l-4.14 10.44c-.738 1.872-1.944 2.448-3.204 2.448-1.296 0-2.286-.9-2.286-.9z" fill="#000"/>
        <path d="M109.236.05c-.619 0-1.227.048-1.821.138V4.19l.003-.002V12.5h3.619V4.184c3.758.839 6.572 4.246 6.572 8.324 0 4.708-3.749 8.524-8.373 8.524-4.624 0-8.372-3.816-8.372-8.524 0-2.35.936-4.476 2.447-6.018l-2.735-2.782a12.532 12.532 0 0 0-3.576 8.8c0 6.88 5.478 12.457 12.236 12.457 6.758 0 12.236-5.577 12.236-12.457 0-6.88-5.478-12.457-12.236-12.457" fill="#3C3"/>
        <path d="M139.615 12.508a6.31 6.31 0 0 0-.067-.916h-1.942l-4.034.001v1.821h4.036c-.407 1.891-2.06 3.307-4.04 3.307-2.286 0-4.139-1.886-4.139-4.213 0-2.326 1.853-4.213 4.138-4.213 1.141 0 2.174.471 2.922 1.232l1.35-1.377a5.975 5.975 0 0 0-4.272-1.799c-3.34 0-6.047 2.757-6.047 6.157s2.707 6.157 6.047 6.157 6.048-2.757 6.048-6.157M146.623 12.457c1.474 0 2.412-.785 2.412-1.995v-.034c0-1.28-.905-1.979-2.43-1.979h-2.998v4.008h3.016zm-5.076-5.918h5.226c1.475 0 2.63.444 3.384 1.194.62.648.972 1.535.972 2.575v.035c0 1.96-1.156 3.137-2.781 3.615l3.166 4.52h-2.446l-2.881-4.162h-2.58v4.161h-2.06V6.54zM153.405 6.54h8.694v1.875h-6.634v3.104h5.88v1.893h-5.88v3.19h6.718v1.875h-8.778zM164.376 6.54h8.694v1.875h-6.634v3.104h5.88v1.893h-5.88v3.19h6.717v1.875h-8.777zM175.346 6.54h1.91l6.282 8.254V6.539h2.027v11.938h-1.726l-6.466-8.493v8.493h-2.027zM187.81 6.54h2.06v10.027h6.164v1.91h-8.224zM198.027 18.477h2.06V6.54h-2.06zM215.848 6.54h2.06v4.962h5.595V6.54h2.06v11.938h-2.06v-5.03h-5.595v5.03h-2.06zM231.19 8.484h-3.736V6.539h9.532v1.945h-3.736v9.993h-2.06zM213.912 12.494c0-.312-.023-.618-.067-.917h-1.942v.002h-4.034v1.82h4.036c-.407 1.892-2.061 3.308-4.04 3.308-2.286 0-4.139-1.886-4.139-4.213s1.853-4.213 4.138-4.213c1.141 0 2.174.471 2.922 1.232l1.35-1.377a5.975 5.975 0 0 0-4.272-1.799c-3.34 0-6.047 2.756-6.047 6.157 0 3.4 2.707 6.157 6.047 6.157s6.048-2.757 6.048-6.157" fill="#000"/>
    </g>
</svg>
