<svg width="120" height="28" xmlns="http://www.w3.org/2000/svg">
    <g fill="none" fill-rule="evenodd">
        <path class="letters" d="M43.742 18.612l-2.515-2.086 1.642-1.805 2.556 2.246c.457-.762.707-1.664.707-2.667v-.04c0-2.728-2.058-4.974-4.946-4.974-2.89 0-4.905 2.206-4.905 4.934v.04c0 2.727 2.057 4.973 4.946 4.973.956 0 1.788-.22 2.515-.621zm3.616 3.088l-1.746-1.504c-1.226.842-2.743 1.323-4.426 1.323-4.469 0-7.586-3.269-7.586-7.22v-.04C33.6 10.31 36.759 7 41.227 7s7.586 3.269 7.586 7.22v.04c0 1.604-.54 3.088-1.476 4.312L49 19.935 47.358 21.7zM49.7 14.935V7h2.587v7.837c0 2.56 1.41 3.918 3.724 3.918 2.292 0 3.702-1.28 3.702-3.82V7H62.3v7.817c0 4.116-2.482 6.183-6.332 6.183-3.828 0-6.268-2.067-6.268-6.065M63.7 7h10.4v2.2h-7.935v3.64h7.033v2.22h-7.033v3.74H74.2V21H63.7zM74.9 19.413l1.53-1.796c1.384 1.184 2.789 1.858 4.566 1.858 1.57 0 2.562-.735 2.562-1.797v-.041c0-1.02-.578-1.572-3.265-2.184-3.079-.735-4.815-1.634-4.815-4.268v-.04c0-2.45 2.067-4.145 4.94-4.145 2.107 0 3.781.633 5.248 1.797l-1.364 1.898c-1.301-.96-2.603-1.47-3.926-1.47-1.488 0-2.356.756-2.356 1.695v.04c0 1.103.662 1.593 3.451 2.247 3.059.735 4.629 1.817 4.629 4.185v.041c0 2.675-2.128 4.267-5.166 4.267a8.972 8.972 0 0 1-6.034-2.287M90.49 9.28H86.1V7h11.2v2.28h-4.39V21h-2.42zM116.9 21h2.1V7h-2.1zM113.212 16.873v-.04c0-1.718-1.366-2.876-2.981-2.876-1.616 0-2.885 1.138-2.885 2.876v.04c0 1.718 1.289 2.896 2.885 2.896 1.615 0 2.98-1.178 2.98-2.896m-7.71 7.769l.864-1.818c1.096.7 2.231 1.099 3.616 1.099 2.077 0 3.211-1.099 3.211-3.215v-.8c-.846 1.119-1.904 1.918-3.576 1.918-2.405 0-4.616-1.838-4.616-4.933v-.04c0-3.116 2.25-4.953 4.616-4.953 1.71 0 2.768.819 3.557 1.797V12.12h2.327v8.388c0 1.777-.442 3.095-1.288 3.974-.924.958-2.347 1.418-4.173 1.418-1.674 0-3.231-.44-4.539-1.258" fill="#FFF"/>
        <path class="icon" d="M4.352 14c0-5.328 4.32-9.648 9.648-9.648A9.648 9.648 0 0 1 23.648 14c0 5.328-4.32 9.648-9.648 9.648-5.328 0-9.648-4.32-9.648-9.648M28 14c0-7.732-6.268-14-14-14S0 6.268 0 14s6.268 14 14 14h14v-4.352h-3.855A13.952 13.952 0 0 0 28 14" fill="#FF7C00"/>
        <path class="dot" d="M100.8 19.6a1.4 1.4 0 1 1-2.8 0 1.4 1.4 0 0 1 2.8 0" fill="#FC6219"/>
    </g>
</svg>
